<?xml version="1.0" encoding="UTF-8"?>
<!-- Creator: CorelDRAW 2020 (64 Bit) -->
<svg xmlns="http://www.w3.org/2000/svg" xmlns:xlink="http://www.w3.org/1999/xlink" xmlns:xodm="http://www.corel.com/coreldraw/odm/2003" xml:space="preserve" width="2203px" height="471px" version="1.0" style="shape-rendering:geometricPrecision; text-rendering:geometricPrecision; image-rendering:optimizeQuality; fill-rule:evenodd; clip-rule:evenodd" viewBox="0 0 2220.52 474.38">
 <defs>
  <style type="text/css">
   <![CDATA[
    .fil0 {fill:#FEFEFE;fill-rule:nonzero}
   ]]>
  </style>
 </defs>
 <g id="Camada_x0020_1">
  <metadata id="CorelCorpID_0Corel-Layer"></metadata>
  <g id="_2291340034976">
   <g>
    <path class="fil0" d="M51.73 429.54c-34.02,-32.3 -51.66,-74.53 -51.69,-121.71 -0.05,-74.44 -0.05,-122.3 0,-143.59 0.18,-84.82 65.09,-155.65 149.29,-163.52 90.69,-8.47 170.76,58.65 179.12,149.06 0.39,4.15 0.58,9.69 0.59,16.59 0.07,47.52 0.08,95.04 0.02,142.55 -0.04,41.87 -14.66,80.16 -42.34,111.14 -61.29,68.56 -168.33,72.79 -234.99,9.48zm221.03 -5.24c33.64,-31.97 49.62,-72.43 49.67,-118.98 0.04,-45.1 0.02,-90.21 -0.05,-135.32 -0.01,-7.21 -0.16,-12.75 -0.46,-16.62 -2.6,-33.5 -14.4,-63.08 -35.42,-88.72 -59.71,-72.85 -169.88,-77.52 -235.28,-9.58 -26.72,27.76 -44.33,66.91 -44.34,106.05 0,49.31 0,98.63 0.02,147.95 0.01,40.78 14.6,78.06 41.96,107.83 59.47,64.74 160.39,67.8 223.9,7.39z"></path>
    <path class="fil0" d="M148 285.83c0,-0.54 -0.27,-0.82 -0.82,-0.82l-55.93 0.02c-0.25,0 -0.38,-0.13 -0.38,-0.38 -0.02,-61.56 -0.02,-123.11 0,-184.65 0,-5.81 6.64,-5.26 6.64,0.58 0,59.26 0,118.52 0.01,177.79 0,0.28 0.14,0.42 0.42,0.42l49.65 -0.01c0.24,0 0.43,-0.19 0.43,-0.44 0.02,-15.63 0.02,-31.35 0,-47.15 -0.01,-11.53 3.41,-21.73 10.28,-30.58 24.19,-31.2 72.89,-23.5 86.39,13.54 1.2,3.29 4.52,16.66 2.06,19.01 -2.61,2.5 -5.69,0.33 -5.75,-2.97 -0.46,-27.78 -26.93,-47.92 -53.67,-41.13 -19.28,4.89 -32.21,21.58 -32.79,41.55 -0.2,6.87 -0.19,22.76 0.02,47.67 0.01,0.34 0.18,0.5 0.51,0.5l49.62 0c0.72,0 1.41,0.4 1.78,1.05 1.13,2.1 0.76,3.77 -1.14,5.01 -0.21,0.14 -0.44,0.21 -0.68,0.21l-49.65 -0.04c-0.35,0 -0.52,0.18 -0.52,0.53 -0.02,16.03 -0.02,32.07 0,48.11 0.01,10.15 -0.04,15.69 -0.14,16.61 -1.66,14.08 -12.02,25.15 -25.85,27.85 -19.07,3.72 -37.58,-11.52 -37.62,-30.94 0,-2.07 0.54,-3.25 2.64,-3.62 4.98,-0.86 3.64,5.08 4.27,7.74 3.2,13.42 14.74,22.39 28.48,20.46 9.32,-1.32 17.63,-8.22 20.48,-17.18 0.83,-2.61 1.25,-7.21 1.27,-13.78 0.04,-18.48 0.04,-36.8 -0.01,-54.96z"></path>
    <circle class="fil0" cx="169.43" cy="369.42" r="6.39"></circle>
   </g>
   <g>
    <path class="fil0" d="M934.09 221.59c-29.37,42.13 -83.01,30.16 -101.02,-14.62 -4.81,-11.96 -6.92,-24.42 -6.33,-37.35 1.59,-34.48 26,-71.63 64.71,-69.16 11.02,0.7 21.07,4.92 30.16,12.64 0.22,0.19 0.31,0.43 0.25,0.72l-4.07 23.1c-0.1,0.57 -0.6,0.99 -1.18,0.99 -0.07,0 -0.14,0 -0.22,-0.02 -0.77,-0.13 -1.01,-0.78 -0.72,-1.92 5.27,-20.48 -16.19,-36.31 -35.09,-32.72 -18.71,3.55 -30.21,20.66 -35.12,38.23 -6.2,22.23 -6.12,44.28 0.25,66.17 4.63,15.94 15.5,32.44 32.73,36.68 19.99,4.92 41.36,-7.07 53.13,-22.95 0.36,-0.49 2.17,-1.9 2.63,-0.74 0.12,0.34 0.09,0.65 -0.11,0.95z"></path>
    <path class="fil0" d="M431.15 105.7c-0.25,0.21 -0.39,0.51 -0.39,0.83 0,0 0,0 0,0l0 134.89c0,0 0,0 0,0 0,1.41 1.14,2.56 2.55,2.56 19.9,0.04 39.78,0.03 59.63,-0.02 11.26,-0.02 13.63,-7.01 12.83,-16.86 -0.04,-0.55 0.21,-0.82 0.76,-0.82l1.06 0c0.36,0 0.55,0.18 0.56,0.55l0.29 19.09c0,0 0,0.01 0,0.01 0,0.22 -0.18,0.39 -0.4,0.39 0,0 0,0 0,0l-107.42 0.01c-0.22,-0.01 -0.4,-0.18 -0.41,-0.41l-0.04 -1.26c0,-0.45 0.21,-0.67 0.65,-0.67l13.61 0c1.43,0 2.6,-1.16 2.6,-2.59l-0.01 -134.99c0.01,-1.15 -0.92,-2.08 -2.07,-2.08l-14.11 0.01c-0.44,0 -0.66,-0.22 -0.66,-0.66l0 -1.03c0,-0.43 0.22,-0.65 0.66,-0.65l46.27 0c0.51,0 0.73,0.26 0.69,0.76l-0.1 0.91c-0.05,0.44 -0.29,0.67 -0.73,0.67l-13.61 0c-0.36,0 -0.68,0.11 -0.96,0.34l-1.25 1.02z"></path>
    <path class="fil0" d="M551.35 172.9c5.65,0.29 11.31,0.35 16.97,0.18 8.13,-0.24 13.71,0.62 15.13,-8.31 0.07,-0.39 0.29,-0.58 0.68,-0.58l0.92 0c0.43,0 0.65,0.22 0.65,0.65l0 18.82c0,0.52 -0.25,0.74 -0.76,0.68l-0.91 -0.12c-0.43,-0.05 -0.66,-0.29 -0.69,-0.72 -0.6,-6.49 -4.7,-8.08 -10.79,-8.27 -6.44,-0.21 -13.16,-0.23 -20.15,-0.07 -1.12,0.03 -1.68,0.61 -1.68,1.73l0 65.03c0,1.14 0.93,2.06 2.07,2.06 19.83,0.02 39.65,0.02 59.47,0.01 12.38,-0.01 13.54,-6.63 13.6,-17.09 0.01,-0.35 0.19,-0.53 0.54,-0.53l1.02 0c0.52,0 0.78,0.26 0.78,0.78l0 18.4c0,0.52 -0.26,0.78 -0.78,0.78l-106.84 0c-0.21,-0.01 -0.39,-0.18 -0.4,-0.41l-0.04 -1.26c-0.01,-0.45 0.21,-0.67 0.64,-0.67l13.62 0c1.43,0 2.59,-1.16 2.59,-2.59l0 -134.73c0,-1.29 -1.04,-2.34 -2.33,-2.34l-13.85 0.01c-0.42,0 -0.65,-0.21 -0.68,-0.64l-0.07 -0.97c-0.04,-0.48 0.18,-0.73 0.67,-0.73l100.99 0c0.43,0 0.78,0.35 0.78,0.78l-0.04 18.44c0,0.37 -0.18,0.6 -0.53,0.71l-0.85 0.27c-0.5,0.16 -0.76,-0.03 -0.79,-0.55 -0.51,-10.49 -0.66,-17.25 -13.39,-17.28 -18.06,-0.05 -35.93,-0.05 -53.62,-0.01 -1.41,-0.01 -2.56,1.14 -2.56,2.55l0 65.33c0,0.42 0.21,0.63 0.63,0.66z"></path>
    <path class="fil0" d="M642.17 120.88c0.28,0.76 -0.9,1.34 -1.41,1.29 -0.53,-0.05 -0.94,-0.5 -0.93,-1.02l0.29 -18.67c0.01,-0.32 0.17,-0.48 0.49,-0.48l111.48 0c0.27,0 0.49,0.22 0.49,0.49l-0.06 18.66c0,0.36 -0.16,0.64 -0.48,0.82 -3.02,1.65 -2.08,-5.22 -2.08,-6.47 -0.03,-7.74 -5.29,-11.11 -12.53,-11.13 -10.23,-0.04 -20.47,-0.05 -30.7,-0.04 -2.92,0 -3.95,1.52 -3.95,4.22 0.01,43.85 0.01,87.7 -0.01,131.56 0,1.28 0.38,2.28 1.16,3.02 1.64,1.56 12.56,0.87 15.25,0.85 0.49,0 0.74,0.25 0.74,0.74l0 0.95c0,0.44 -0.22,0.66 -0.64,0.66l-46.03 0c-0.51,0 -0.73,-0.26 -0.68,-0.76l0.09 -0.91c0.05,-0.45 0.29,-0.67 0.73,-0.67l13.36 0c1.29,0 2.34,-1.04 2.34,-2.33l0 -135.25c0,0 0,0 0,0 0,-1.13 -0.91,-2.04 -2.04,-2.05 -10.98,-0.06 -21.92,-0.06 -32.84,0.02 -10.64,0.07 -12.18,7.04 -12.12,16.06 0,0.15 0.03,0.3 0.08,0.44z"></path>
    <path class="fil0" d="M779.02 104.37l-13.77 -0.05c-0.34,0 -0.51,-0.17 -0.51,-0.51l0 -1.15c0,-0.44 0.22,-0.66 0.66,-0.66l45.42 0c0,0 0,0 0.01,0 0.56,0 1.03,0.41 1.11,0.97l0.13 0.76c0.06,0.4 -0.12,0.61 -0.53,0.61l-14.22 0c-0.41,0 -0.75,0.14 -1.04,0.44 -0.97,1.02 -1.46,2.45 -1.46,4.28 -0.03,42.69 -0.03,85.38 -0.01,128.06 0,1.46 0.38,3.09 0.24,4.6 -0.01,0.07 -0.01,0.13 -0.01,0.2 0,1.13 0.92,2.05 2.05,2.05l13.91 0.03c0.4,0 0.66,0.19 0.79,0.56l0.28 0.83c0.02,0.07 0.04,0.15 0.04,0.23 0,0.39 -0.32,0.7 -0.71,0.7l-46.14 0.01c-0.34,0 -0.52,-0.18 -0.52,-0.52l0 -1.17c0,-0.43 0.22,-0.65 0.66,-0.65l13.59 0c1.15,0 2.08,-0.93 2.08,-2.07l0 -135.49c0,0 0,0 0,0 0,-1.14 -0.92,-2.06 -2.05,-2.07l0 0.01z"></path>
    <path class="fil0" d="M958.26 104.34l-15.25 0c-0.35,0 -0.58,-0.17 -0.7,-0.49 -0.48,-1.32 0.07,-1.85 1.35,-1.85 15.07,0 30.14,0 45.21,0 0.48,0 0.71,0.24 0.71,0.72l0 0.95c0,0.44 -0.22,0.67 -0.66,0.67 -2.29,-0.01 -14.61,-1.63 -11.42,3.91 13.88,24.08 27.7,48.02 41.46,71.82 0.14,0.24 0.4,0.39 0.68,0.39 0.28,0 0.55,-0.15 0.69,-0.39 13.9,-24.03 27.65,-47.87 41.27,-71.51 2.83,-4.91 -4.09,-4.31 -6.19,-4.27 -0.49,0.01 -0.74,-0.23 -0.75,-0.71 -0.01,-0.94 0.42,-1.56 1.41,-1.56 7.26,-0.02 14.51,-0.03 21.75,-0.01 0,0 0.01,0 0.02,0 0.39,0.02 0.69,0.33 0.67,0.71 0,0.01 0,0.02 0,0.03l-0.06 0.91c-0.04,0.45 -0.28,0.68 -0.74,0.68l-9.79 0c-0.68,-0.01 -1.3,0.35 -1.64,0.94 -15.12,26.13 -30.2,52.25 -45.25,78.35 -0.7,1.21 -1.05,2.51 -1.05,3.91 -0.02,18.25 -0.03,36.5 -0.01,54.76 0,1.12 0.56,1.67 1.67,1.67l14.47 0.03c0.41,0 0.64,0.2 0.7,0.59l0.16 1.12c0.06,0.41 -0.11,0.62 -0.53,0.62l-46.68 0c-0.44,0 -0.65,-0.23 -0.64,-0.67l0.03 -0.86c0.02,-0.54 0.31,-0.81 0.85,-0.81l13.64 0c1.25,0.02 2.31,-1 2.33,-2.29 0.01,-16.68 0.01,-33.49 0,-50.41 0,-1.31 0.61,-4.77 0,-5.83 -21.13,-36.75 -36.31,-63.04 -45.51,-78.88 -0.3,-0.52 -0.77,-1.15 -1.41,-1.88 -0.21,-0.24 -0.47,-0.36 -0.79,-0.36z"></path>
    <path class="fil0" d="M1099.07 183.21c-6.81,18.94 -13.68,37.87 -20.62,56.78 -1.93,5.26 5.27,3.98 7.92,4.01 0.47,0.01 0.7,0.25 0.7,0.72l0 1.09c0,0.34 -0.17,0.52 -0.52,0.52l-22.89 0c-0.41,0 -0.6,-0.21 -0.58,-0.62l0.06 -1.01c0.03,-0.47 0.28,-0.71 0.75,-0.71l8.64 0c1.13,0.02 2.18,-0.69 2.6,-1.79l50.83 -139.62c0.19,-0.53 0.69,-0.88 1.25,-0.88 0.56,0 1.06,0.35 1.25,0.88l50.95 140.04c0.27,0.79 1.05,1.36 1.93,1.37l15.1 0c0.01,0 0.01,0 0.01,0 0.37,0 0.7,0.27 0.76,0.64l0.18 0.9c0.09,0.53 -0.13,0.8 -0.67,0.8l-46.57 0c-0.44,0 -0.66,-0.23 -0.65,-0.67l0.05 -0.93c0.01,-0.48 0.26,-0.73 0.74,-0.74 3.23,0 6.45,0 9.67,0.02 4.64,0.04 4.42,-2.18 3.15,-5.68 -6.6,-18.15 -13.26,-36.44 -19.96,-54.86 -0.18,-0.52 -0.55,-0.77 -1.1,-0.77l-42.54 0.21c-0.2,0 -0.37,0.12 -0.44,0.3l0 0zm1.09 -2.85c-0.01,0.03 -0.02,0.06 -0.02,0.1 0,0.17 0.14,0.31 0.31,0.31l41.27 0c0.17,0 0.31,-0.14 0.31,-0.31 0,-0.04 -0.01,-0.07 -0.02,-0.1l-20.63 -56.68c-0.05,-0.13 -0.16,-0.21 -0.29,-0.21 -0.13,0 -0.25,0.08 -0.29,0.2l-20.64 56.69z"></path>
    <path class="fil0" d="M1319.17 173.01c6.16,-0.36 11.17,-0.37 11.78,-8.32 0.04,-0.53 0.32,-0.75 0.84,-0.67l0.82 0.14c0.41,0.06 0.61,0.3 0.61,0.71l0 18.74c0,0.3 -0.18,0.56 -0.46,0.67 -1.05,0.42 -1.7,0.08 -1.82,-1.06 -0.67,-6.22 -4.75,-7.76 -10.63,-8 -7.08,-0.28 -14.15,-0.26 -21.21,0.05 -0.47,0.01 -0.85,0.41 -0.86,0.88l0 65.38c0,1.36 1.11,2.46 2.47,2.46l13.86 0c0.34,0 0.51,0.18 0.51,0.52l0 1.3c0,0.34 -0.17,0.52 -0.51,0.52l-46.38 0c-0.35,0 -0.52,-0.18 -0.52,-0.52l0 -1.04c0,-0.52 0.26,-0.78 0.77,-0.78l13.76 0c1.27,0 2.3,-1.03 2.3,-2.3 0.01,-44.95 0.01,-89.94 0,-134.96 0,-1.64 -0.94,-2.45 -2.83,-2.45 -4.42,0.02 -8.84,0.05 -13.25,0.08 -0.42,0 -0.67,-0.2 -0.76,-0.6l-0.23 -1.01c-0.12,-0.5 0.08,-0.75 0.6,-0.75l101.47 0c0.42,0 0.77,0.35 0.77,0.78l0 18.43c0,0.41 -0.19,0.68 -0.59,0.8l-0.86 0.25c-0.54,0.16 -0.81,-0.05 -0.82,-0.61 -0.26,-11.24 -1.4,-17.3 -14.22,-17.31 -17.39,-0.01 -34.78,-0.01 -52.17,0.01 -2.16,0 -3.25,0.96 -3.25,2.9 -0.09,21.65 -0.13,43.33 -0.13,65.04 0.01,0.4 0.33,0.71 0.72,0.72 6.7,0.03 13.55,0.39 20.22,0z"></path>
    <path class="fil0" d="M1412.77 176.9l0 64.52c0,1.41 1.14,2.56 2.56,2.56 19.7,0.02 39.38,0.02 59.04,0 12.06,-0.01 13.44,-6.44 13.26,-16.93 -0.01,-0.45 0.22,-0.68 0.67,-0.68l1.3 0c0.43,0 0.64,0.22 0.64,0.65l0 18.53c0,0.52 -0.26,0.78 -0.78,0.78l-107.01 0c-0.04,-0.01 -0.08,-0.01 -0.12,-0.02 -0.43,-0.06 -0.72,-0.46 -0.66,-0.89 0.01,-0.04 0.02,-0.08 0.03,-0.12l0.29 -0.86c0.09,-0.3 0.3,-0.45 0.61,-0.45l14.09 0c1.27,0 2.3,-1.03 2.3,-2.31 0.06,-44.75 0.06,-89.48 0.02,-134.17 0,-2.12 -1.11,-3.18 -3.34,-3.18 -4.47,0 -8.9,0.01 -13.27,0.01 0,-0.01 0,-0.01 0,-0.01 -0.41,0 -0.75,-0.32 -0.76,-0.73 -0.03,-0.91 0.42,-1.37 1.33,-1.38 33.61,-0.14 67.26,-0.23 100.93,-0.25 0.21,0 0.38,0.17 0.38,0.37l0 18.89c0,0.33 -0.12,0.61 -0.35,0.84 -0.13,0.14 -0.26,0.26 -0.39,0.37 -0.91,0.82 -1.36,0.61 -1.34,-0.62 0.2,-10.33 -1.04,-17.44 -13.17,-17.46 -18.07,-0.04 -35.97,-0.04 -53.7,-0.01 -1.42,-0.01 -2.56,1.14 -2.56,2.55l0 65.58c0,0.28 0.23,0.5 0.51,0.51 5.59,0.1 11.17,0.12 16.76,0.04 8.13,-0.1 13.9,0.78 15.32,-8.18 0.07,-0.44 0.33,-0.66 0.77,-0.66l0.96 0c0.44,0 0.66,0.21 0.66,0.64l0 18.55c0,0.38 -0.19,0.61 -0.55,0.71l-1.02 0.27c-0.45,0.12 -0.71,-0.06 -0.77,-0.53 -0.71,-5.71 -4.02,-8.61 -9.91,-8.7 -6.63,-0.09 -13.63,-0.1 -20.99,-0.01 -1.16,0.02 -1.74,0.61 -1.74,1.78z"></path>
    <path class="fil0" d="M1535.35 241.87c0,1.17 0.95,2.12 2.12,2.12l13.65 0c0.97,0 1.3,0.47 0.99,1.39 -0.17,0.52 -0.57,0.94 -1.17,0.94 -15.19,0.01 -30.45,0.01 -45.76,0.01 -0.22,-0.01 -0.4,-0.18 -0.4,-0.4l-0.04 -1.27c-0.01,-0.45 0.21,-0.67 0.64,-0.67l13.65 0c1.41,0 2.56,-1.14 2.56,-2.56 0,-44.63 0,-89.38 0,-134.24 0,-1.63 -1.65,-2.81 -3.32,-2.83 -4.29,-0.04 -8.58,-0.04 -12.89,0 -0.42,0 -0.63,-0.21 -0.63,-0.63l0 -1c0,-0.49 0.24,-0.74 0.74,-0.74 18.41,-0.02 36.82,0.05 55.23,0.22 14.03,0.13 26.79,3.62 38.27,10.46 25.11,14.94 28.41,44.49 2.91,62.11 -8.52,5.9 -17.95,9.67 -28.27,11.31 -0.04,0 -0.07,0.01 -0.1,0.02 -0.3,0.11 -0.45,0.44 -0.34,0.74 0.01,0.04 0.02,0.07 0.04,0.1l32.34 56c0.37,0.64 1.06,1.04 1.81,1.04l14.97 0c0.44,0 0.69,0.22 0.73,0.67l0.1 0.97c0.05,0.46 -0.16,0.7 -0.63,0.7l-46.62 0c-0.23,-0.01 -0.41,-0.19 -0.41,-0.4l-0.05 -1.19c-0.02,-0.49 0.22,-0.74 0.71,-0.74 2.57,-0.02 15.01,1.78 11.5,-4.29 -9.8,-16.94 -19.59,-33.89 -29.36,-50.84 -0.52,-0.9 -1.19,-1.35 -2.02,-1.38 -6.17,-0.2 -12.59,-0.26 -19.25,-0.2 -1.16,0.01 -1.74,0.6 -1.74,1.76l0.04 52.82zm0.43 -56.89c0.88,0.75 1.59,0.32 2.38,0.35 21.46,0.82 48.28,1.6 61.28,-19.52 16.37,-26.63 -1.54,-57.24 -31.23,-60.73 -9.41,-1.11 -18.79,-0.75 -28.25,-0.72 -3.36,0.01 -4.65,-0.12 -4.63,3.89 0.16,25.42 0.13,50.82 -0.09,76.22 0,0.2 0.09,0.35 0.27,0.44 0.1,0.05 0.19,0.07 0.27,0.07z"></path>
    <path class="fil0" d="M1707.27 186.11c-0.04,0 -0.07,0.01 -0.1,0.02 -0.27,0.1 -0.41,0.41 -0.31,0.69 0.01,0.03 0.02,0.05 0.03,0.08l32.18 55.78c0.44,0.78 1.3,1.3 2.24,1.31l14.79 0c0.5,0 0.73,0.25 0.71,0.74l-0.06 1.03c-0.03,0.38 -0.23,0.57 -0.61,0.57l-46.27 0c-0.42,0 -0.65,-0.21 -0.72,-0.62l-0.12 -0.78c-0.08,-0.52 0.13,-0.78 0.64,-0.8 2.08,-0.1 11.55,0.99 12.43,-2.33 0.09,-0.36 0.05,-0.69 -0.14,-1.01l-30.37 -52.63c-0.34,-0.58 -0.96,-0.93 -1.63,-0.93 0,0 -0.01,0 -0.01,0l-19.24 0.07c-1.08,0 -1.62,0.54 -1.62,1.63l0.07 52.26c0,1.54 1.26,2.8 2.81,2.8l12.78 0c0.34,0 0.56,0.16 0.68,0.47l0.38 1.08c0.2,0.52 0.01,0.79 -0.55,0.79l-46.38 0c-0.22,-0.01 -0.4,-0.18 -0.4,-0.41l-0.04 -1.26c-0.01,-0.45 0.21,-0.67 0.64,-0.67l13.65 0c1.41,0 2.56,-1.14 2.56,-2.56 0,-44.63 0,-89.38 0,-134.24 0,-1.63 -1.66,-2.82 -3.34,-2.83 -4.25,-0.02 -8.51,-0.03 -12.78,-0.02 -0.48,0 -0.72,-0.24 -0.72,-0.73l0 -0.88c0,-0.48 0.24,-0.73 0.72,-0.73 18.51,0 37.01,0 55.5,0 22.64,-0.01 54.91,13.11 58.35,38.87 3.46,25.85 -24.41,41.82 -45.75,45.24zm-38.06 -5.81c0,0.79 -0.55,3.37 0.01,4.42 0.18,0.33 0.46,0.51 0.84,0.52 25.47,0.96 56.2,1.52 66.41,-26.27 7.37,-20.09 -1.15,-41.18 -20.73,-49.95 -13.52,-6.05 -29.09,-4.78 -43.61,-4.88 -2,-0.01 -3.01,0.94 -3.04,2.85 -0.22,20.85 -0.18,45.29 0.12,73.31z"></path>
    <path class="fil0" d="M1803.19 243.18c0.8,0.42 1.57,0.81 2.53,0.81 19.45,0 38.91,0 58.36,0 11.09,0.01 14.72,-6.45 13.67,-16.86 -0.06,-0.5 0.17,-0.76 0.68,-0.76l0.86 0c0.43,0 0.64,0.22 0.64,0.66l0 18.52c0,0.52 -0.26,0.78 -0.77,0.78l-106.22 0c-0.35,0 -0.59,-0.17 -0.71,-0.49 -0.5,-1.3 0.06,-1.85 1.34,-1.85 4.29,0 8.6,0 12.93,0 0,0 0.01,0 0.01,0 1.37,0 2.48,-1.11 2.48,-2.48 0,0 0,0 0,0 0,-44.66 0,-89.43 0,-134.32 0,-1.63 -1.66,-2.82 -3.33,-2.83 -4.32,-0.02 -8.64,-0.03 -12.97,-0.02 -0.36,0 -0.54,-0.18 -0.54,-0.53l0 -1.03c0,-0.52 0.26,-0.78 0.77,-0.78l100.72 0c0.36,0 0.64,0.29 0.64,0.65l-0.07 18.84c0,0.5 -0.26,0.72 -0.75,0.66l-0.89 -0.11c-0.46,-0.06 -0.69,-0.31 -0.68,-0.77 0.04,-3.59 0.53,-7.74 -1.02,-10.83 -2.45,-4.82 -6.3,-6.07 -11.81,-6.08 -18.01,-0.03 -36.01,-0.03 -54.01,-0.01 -1.43,0 -2.15,0.86 -2.16,2.58 -0.17,21.41 -0.2,43.13 -0.1,65.16 0,-0.01 0,-0.01 0,-0.01 0,0.49 0.39,0.89 0.87,0.91 5.65,0.18 11.33,0.21 17.04,0.07 7.94,-0.18 12.83,0.54 14.52,-8.02 0.2,-1.02 0.83,-1.23 1.87,-0.63 0.23,0.13 0.35,0.33 0.35,0.61l0 18.47c0,0.43 -0.21,0.65 -0.64,0.65l-0.7 0c-0.43,0 -0.67,-0.21 -0.74,-0.64 -0.92,-5.56 -4.27,-8.38 -10.06,-8.45 -6.79,-0.07 -13.84,-0.03 -21.15,0.13 -0.95,0.03 -1.42,0.51 -1.42,1.45l-0.02 65.8c0,0.32 0.19,0.62 0.49,0.76l-0.01 -0.01z"></path>
    <path class="fil0" d="M1911.02 243.1c0.17,-0.11 0.27,-0.29 0.27,-0.49l0 -136.17c-0.01,-1.16 -0.95,-2.1 -2.11,-2.11l-13.83 0.01c-0.43,0 -0.65,-0.22 -0.65,-0.66l0 -1.03c0,-0.43 0.22,-0.65 0.66,-0.65l45.98 0c0.48,0 0.72,0.24 0.72,0.72l0 0.95c0,0.44 -0.22,0.66 -0.67,0.67 -4.51,0 -9.02,0 -13.54,0.02 -2.34,0 -2.81,2.5 -2.81,4.56 -0.03,43.82 -0.05,87.63 -0.06,131.45 0,2.35 1.11,3.59 3.55,3.6 4.2,0.02 8.38,0.03 12.55,0.02 0.39,0 0.64,0.19 0.76,0.56l0.31 1.01c0.17,0.51 -0.02,0.77 -0.56,0.77l-46.44 0c-0.23,-0.01 -0.41,-0.19 -0.42,-0.4l-0.04 -1.18c-0.02,-0.47 0.21,-0.7 0.68,-0.7 3.62,-0.06 12.81,0.82 15.65,-0.95z"></path>
    <path class="fil0" d="M2040.57 240.92c-9.47,-16.91 -19.14,-33.69 -29.02,-50.35 -0.81,-1.37 -1.03,-3.2 -3.16,-3.25 -6.73,-0.16 -13.18,-0.14 -19.36,0.07 -1.05,0.05 -1.57,0.58 -1.57,1.62 0,17.39 0,34.68 0.01,51.87 0,4.78 12.67,3.11 15.82,3.11 0.28,0 0.52,0.09 0.73,0.26 0.62,0.51 0.73,1.06 0.33,1.67 -0.18,0.27 -0.42,0.41 -0.74,0.41l-46.2 0c-0.35,0 -0.52,-0.18 -0.52,-0.52l0 -1.17c0,-0.43 0.22,-0.65 0.65,-0.65l13.86 0c1.29,0 2.33,-1.04 2.33,-2.33l0 -135.22c0,-1.16 -0.94,-2.1 -2.11,-2.11l-14.21 0.01c-0.35,0 -0.52,-0.18 -0.52,-0.52l0 -1.08c0,-0.46 0.23,-0.7 0.7,-0.71 16.12,-0.07 32.23,-0.07 48.34,0.02 9.2,0.04 16.07,0.5 20.63,1.37 16.88,3.23 35.93,12.47 42.96,29.39 5.74,13.81 0.93,27.31 -9.56,37.41 -9.03,8.7 -21.7,13.84 -34,15.94 -0.25,0.04 -0.44,0.26 -0.44,0.51 0,0.09 0.03,0.18 0.07,0.26l32.47 56.3c0.27,0.47 0.78,0.76 1.32,0.76l15.2 0c0.39,0 0.59,0.19 0.61,0.57l0.06 1.08c0.03,0.46 -0.19,0.69 -0.64,0.69 -15.05,0 -30.1,0 -45.15,0 -0.89,0 -1.78,-0.32 -1.5,-1.38 0.13,-0.53 0.61,-0.92 1.18,-0.94 2.68,-0.03 10.87,1.14 11.57,-2.13 0.08,-0.34 0.03,-0.66 -0.14,-0.96zm-51.93 -55.62c9.66,0.41 19.28,0.24 28.87,-0.51 55.02,-4.26 52.93,-78.01 -2.59,-80.35 -3.99,-0.17 -11.83,-0.2 -23.52,-0.08 -2.25,0.02 -3.92,0.71 -3.92,3.16 -0.03,25.61 -0.03,51.13 -0.01,76.56 0,0 0,0 0,0 0,0.65 0.52,1.19 1.17,1.22l0 0z"></path>
    <path class="fil0" d="M2165.57 182.73l-42.39 0.17c-0.35,0 -0.66,0.22 -0.78,0.54 -6.9,19 -13.8,37.97 -20.69,56.92 -1.73,4.73 5.58,3.69 7.97,3.65 0.4,0 0.6,0.19 0.6,0.58l0 1.09c0,0.43 -0.21,0.65 -0.64,0.65l-22.83 0c-0.44,0 -0.65,-0.23 -0.64,-0.67l0.04 -1.01c0.02,-0.44 0.24,-0.66 0.68,-0.66l9.38 0c0.98,-0.01 1.82,-0.62 2.13,-1.51l50.92 -139.89c0.17,-0.44 0.48,-0.64 0.95,-0.58l0.89 0.12c0.34,0.04 0.58,0.23 0.7,0.56l51.02 140.21c0.24,0.66 0.86,1.09 1.55,1.09l15.14 0c0.44,0 0.69,0.22 0.77,0.65l0.16 0.92c0.09,0.51 -0.12,0.77 -0.64,0.77l-46.52 0c-0.48,0 -0.68,-0.24 -0.64,-0.7l0.11 -1.07c0.05,-0.46 0.3,-0.68 0.77,-0.67 4.68,0.18 15.46,1.74 13.57,-3.49 -6.76,-18.72 -13.64,-37.73 -20.63,-57.02 -0.16,-0.44 -0.48,-0.66 -0.95,-0.65zm-42.05 -2.4c-0.01,0.03 -0.02,0.07 -0.02,0.11 0,0.18 0.15,0.33 0.33,0.33l41.19 0c0.19,0 0.33,-0.15 0.33,-0.33 0,-0.04 0,-0.08 -0.02,-0.12l-20.59 -56.61c-0.05,-0.14 -0.17,-0.22 -0.31,-0.22 -0.14,0 -0.26,0.08 -0.31,0.22l-20.6 56.62z"></path>
    <path class="fil0" d="M1247.77 356.75c0,14.24 -11.93,25.72 -26.63,25.72 -14.7,0 -26.62,-11.48 -26.62,-25.63 0,-14.16 11.92,-25.63 26.62,-25.63 14.7,0 26.63,11.47 26.63,25.63l0 -0.09zm-7.71 0.09c0,-10.45 -8.48,-18.93 -18.93,-18.93 -10.45,0 -18.92,8.48 -18.92,18.93 0,10.45 8.47,18.92 18.92,18.92 10.45,0 18.93,-8.47 18.93,-18.92l0 0z"></path>
    <path class="fil0" d="M1354.03 374.94c-12.69,13.01 -37.77,8.35 -43.59,-9.44 -2.24,-6.89 -1.93,-13.47 0.93,-19.76 7.25,-15.85 30.69,-19.26 42.86,-6.98 0.28,0.29 0.28,0.57 0,0.85l-4.15 4.18c-0.2,0.2 -0.52,0.2 -0.72,0.01 -10.52,-9.97 -29.18,-6.36 -32.4,8.57 -4.11,19.07 18.63,31.05 32.19,17.64 0.29,-0.29 0.59,-0.29 0.88,0l3.99 4c0.31,0.31 0.32,0.61 0.01,0.93z"></path>
    <path class="fil0" d="M1553.76 381.39c-36.66,9.13 -47.19,-43.24 -12.91,-49.54 8.62,-1.58 17.91,0.51 24.2,6.99 0.23,0.24 0.22,0.48 -0.01,0.71l-3.86 3.86c-0.1,0.1 -0.24,0.15 -0.38,0.15 -0.12,0 -0.23,-0.03 -0.32,-0.1 -27.6,-20.36 -46.99,21.86 -20.63,30.92 6.5,2.23 12.48,1.31 17.93,-2.77 0.78,-0.58 1.63,-1.08 2.53,-1.49 0.29,-0.14 0.55,-0.09 0.78,0.12l4.06 3.8c0.22,0.21 0.23,0.42 0.02,0.64 -3.17,3.36 -6.97,5.6 -11.41,6.71z"></path>
    <path class="fil0" d="M869.1 381.01l22.05 -48.65c0.07,-0.16 0.23,-0.26 0.4,-0.26l6.87 -0.02c0.18,0 0.33,0.1 0.41,0.26l22.09 48.61c0.03,0.05 0.04,0.12 0.04,0.18 0,0.25 -0.2,0.45 -0.44,0.45l-6.99 0c-0.17,0 -0.33,-0.11 -0.4,-0.27l-5.1 -11.64c-0.07,-0.16 -0.23,-0.27 -0.4,-0.27l-25.35 0c-0.17,0 -0.33,0.11 -0.4,0.27l-5.1 11.69c-0.07,0.16 -0.23,0.27 -0.4,0.27l-6.87 0.01c-0.25,0 -0.45,-0.2 -0.45,-0.45 0,-0.06 0.02,-0.12 0.04,-0.18l0 0zm15.79 -18.28c-0.02,0.04 -0.03,0.08 -0.03,0.13 0,0.17 0.14,0.31 0.31,0.31 0,0 0,0 0.01,0l19.54 0.03c0.17,0 0.31,-0.14 0.31,-0.31 0,-0.04 -0.01,-0.08 -0.03,-0.12l-9.73 -22.09c-0.05,-0.11 -0.16,-0.19 -0.28,-0.19 -0.13,0 -0.24,0.08 -0.29,0.19l-9.81 22.05z"></path>
    <path class="fil0" d="M1006.74 332.3c28.48,0.55 33.32,40.36 7.14,48.08 -7.51,2.21 -19.94,1.16 -29.05,1.22 -1.09,0.01 -1.63,-0.53 -1.63,-1.62l-0.04 -46.84c0,-0.72 0.36,-1.07 1.07,-1.07 7.26,0 14.76,0.08 22.51,0.23zm16.68 22.11c-2.07,-16.62 -19.24,-16.91 -32.18,-15.92 -0.37,0.03 -0.56,0.23 -0.56,0.61l0 35.72c0,0.36 0.19,0.54 0.55,0.55 10.64,0.12 23.7,1.45 29.73,-9.04 2.16,-3.76 2.98,-7.74 2.46,-11.92z"></path>
    <path class="fil0" d="M1113.48 371.2l17.15 -38.85c0.07,-0.16 0.23,-0.26 0.4,-0.26l6.65 0c0.24,0 0.43,0.19 0.43,0.43 0,0.06 -0.01,0.12 -0.04,0.18l-21.31 48.62c-0.07,0.15 -0.23,0.26 -0.4,0.26l-6.94 0c-0.17,0 -0.33,-0.11 -0.4,-0.26l-21.4 -48.62c-0.02,-0.06 -0.04,-0.12 -0.04,-0.18 0,-0.24 0.2,-0.43 0.44,-0.43l7.21 0c0.17,0 0.32,0.1 0.39,0.26l17.06 38.85c0.07,0.16 0.23,0.26 0.4,0.26 0.17,0 0.33,-0.1 0.4,-0.26l0 0z"></path>
    <path class="fil0" d="M1449.1 369.4l-25.32 0c-0.17,0 -0.33,0.11 -0.4,0.27l-5.07 11.6c-0.07,0.16 -0.23,0.26 -0.4,0.27l-6.89 0.12c-0.01,0 -0.01,0 -0.02,0 -0.24,0 -0.44,-0.2 -0.44,-0.45 0,-0.06 0.01,-0.12 0.04,-0.18l22.04 -48.68c0.07,-0.16 0.23,-0.26 0.4,-0.26l6.89 0c0.17,0 0.33,0.1 0.4,0.26l22.1 48.63c0.03,0.05 0.04,0.12 0.04,0.18 0,0.25 -0.2,0.45 -0.44,0.45l-6.93 0.1c-0.17,0 -0.33,-0.11 -0.4,-0.27l-5.19 -11.77c-0.07,-0.16 -0.23,-0.27 -0.41,-0.27l0 0zm-22.66 -6.66c-0.02,0.03 -0.03,0.08 -0.03,0.12 0,0.17 0.14,0.32 0.32,0.32l19.46 0c0.18,0 0.32,-0.15 0.32,-0.32 0,-0.04 -0.01,-0.09 -0.03,-0.12l-9.73 -22.12c-0.05,-0.11 -0.17,-0.19 -0.29,-0.19 -0.13,0 -0.24,0.08 -0.29,0.19l-9.73 22.12z"></path>
    <path class="fil0" d="M1630.86 332.09l6.1 0c0.39,0 0.71,0.32 0.71,0.71l0 48.05c0,0.4 -0.32,0.72 -0.72,0.72l-6.09 0c-0.39,0 -0.71,-0.32 -0.71,-0.72l0 -48.05c0,-0.39 0.32,-0.71 0.71,-0.71z"></path>
    <path class="fil0" d="M1699.48 381.4l22.21 -49.08c0.06,-0.14 0.19,-0.22 0.33,-0.22l7.03 -0.02c0.14,0 0.27,0.08 0.33,0.22l22.11 48.77c0.02,0.04 0.03,0.09 0.03,0.14 0,0.2 -0.16,0.37 -0.36,0.37l-7.1 0c-0.15,0 -0.28,-0.09 -0.33,-0.22l-5.18 -11.74c-0.06,-0.14 -0.19,-0.22 -0.34,-0.22l-25.46 0c-0.15,0 -0.28,0.08 -0.33,0.22l-5.11 11.72c-0.06,0.13 -0.18,0.21 -0.32,0.22l-7.16 0.35c-0.01,0 -0.01,0 -0.02,0 -0.2,0 -0.36,-0.16 -0.36,-0.36 0,-0.05 0.01,-0.1 0.03,-0.15l0 0zm16.02 -18.68c-0.02,0.04 -0.03,0.08 -0.03,0.13 0,0.18 0.14,0.33 0.32,0.33l19.39 0c0.18,0 0.33,-0.15 0.33,-0.33 0,-0.05 -0.01,-0.09 -0.03,-0.13l-9.69 -22.1c-0.06,-0.12 -0.18,-0.19 -0.3,-0.19 -0.13,0 -0.25,0.07 -0.31,0.19l-9.68 22.1z"></path>
   </g>
  </g>
 </g>
</svg>
