<?xml version="1.0" encoding="UTF-8" standalone="no"?>
<svg xmlns="http://www.w3.org/2000/svg" version="1.1" viewBox="0.00 0.00 157.00 60.00">
  <g stroke-width="2.00" fill="none" stroke-linecap="butt">
    <path stroke="#2e2e46" stroke-opacity="0.996" d="   M 83.75 6.21   L 83.25 6.96"></path>
    <path stroke="#706e75" stroke-opacity="0.996" d="   M 83.25 6.96   L 82.75 8.46"></path>
    <path stroke="#2e2e46" stroke-opacity="0.996" d="   M 82.75 8.46   L 82.25 13.21"></path>
    <path stroke="#706e75" stroke-opacity="0.996" d="   M 82.25 13.21   L 81.79 15.00"></path>
    <path stroke="#2e2e46" stroke-opacity="0.996" d="   M 81.79 15.00   L 81.25 19.46"></path>
    <path stroke="#706e75" stroke-opacity="0.996" d="   M 81.25 19.46   L 80.79 21.00"></path>
    <path stroke="#2e2e46" stroke-opacity="0.996" d="   M 80.79 21.00   Q 80.02 23.06 80.29 25.25"></path>
    <path stroke="#8f8f8e" stroke-opacity="0.996" d="   M 80.29 25.25   Q 79.26 26.16 80.25 26.96"></path>
    <path stroke="#691f29" stroke-opacity="0.996" d="   M 80.25 26.96   Q 78.96 28.25 79.50 30.21"></path>
    <path stroke="#8f8f8e" stroke-opacity="0.996" d="   M 79.50 30.21   Q 78.71 31.13 79.29 32.25"></path>
    <path stroke="#691f29" stroke-opacity="0.996" d="   M 79.29 32.25   Q 78.41 33.72 78.50 35.46"></path>
    <path stroke="#8f8f8e" stroke-opacity="0.996" d="   M 78.50 35.46   Q 77.93 36.61 78.54 37.75"></path>
    <path stroke="#691f29" stroke-opacity="0.996" d="   M 78.54 37.75   Q 77.55 39.19 78.50 40.71"></path>
    <path stroke="#10592a" stroke-opacity="0.996" d="   M 74.63 39.71   L 69.57 5.23"></path>
    <path stroke="#d68d97" d="   M 143.71 41.00   C 128.01 35.65 113.75 36.91 98.26 36.69   Q 88.86 36.56 79.29 32.25"></path>
    <path stroke="#d68d97" d="   M 143.21 44.25   C 128.10 38.50 114.19 40.19 99.19 39.78   Q 88.44 39.49 78.50 35.46"></path>
    <path stroke="#d68d97" d="   M 105.75 29.36   C 119.50 29.38 131.54 28.67 144.71 33.75"></path>
    <path stroke="#d68d97" d="   M 144.46 35.75   Q 131.76 31.42 121.50 31.50   C 107.79 31.61 93.02 32.91 80.25 26.96"></path>
    <path stroke="#752c4f" d="   M 108.00 10.54   L 107.46 12.00"></path>
    <path stroke="#7c7a9a" d="   M 107.46 12.00   L 106.38 11.71   Q 106.12 11.63 106.04 11.89   L 105.95 12.15   Q 105.79 12.65 106.30 12.76   L 107.46 13.00"></path>
    <path stroke="#752c4f" d="   M 107.46 13.00   L 107.75 13.46"></path>
    <path stroke="#9b9bb3" d="   M 107.75 13.46   Q 106.60 14.58 107.54 15.75"></path>
    <path stroke="#752c4f" d="   M 107.54 15.75   L 106.46 18.25"></path>
    <path stroke="#7c7a9a" d="   M 106.46 18.25   Q 106.10 17.83 105.52 17.90   Q 105.24 17.93 105.25 18.21   Q 105.25 18.35 105.25 18.50   Q 105.25 18.79 105.52 18.89   L 106.50 19.29"></path>
    <path stroke="#9b9bb3" d="   M 106.50 19.29   L 106.54 21.00"></path>
    <path stroke="#752c4f" d="   M 106.54 21.00   Q 105.69 22.40 105.75 24.04"></path>
    <path stroke="#9b9bb3" d="   M 105.75 24.04   L 105.50 24.29"></path>
    <path stroke="#7c7a9a" d="   M 105.50 24.29   Q 104.91 23.97 104.48 24.05   Q 103.84 24.17 104.07 24.78   Q 104.46 25.81 105.71 25.50"></path>
    <path stroke="#9b9bb3" d="   M 105.71 25.50   Q 106.03 26.59 107.25 26.29"></path>
    <path stroke="#752c4f" d="   M 107.25 26.29   Q 106.66 26.73 105.97 26.70   Q 105.56 26.68 105.51 27.10   Q 105.38 28.15 105.75 29.36"></path>
    <path stroke="#9b9bb3" d="   M 105.75 29.36   Q 92.65 29.51 80.29 25.25"></path>
    <path stroke="#7c7a9a" d="   M 80.79 21.00   L 81.13 21.15   Q 81.74 21.42 81.95 20.79   Q 82.25 19.93 81.25 19.46"></path>
    <path stroke="#7c7a9a" d="   M 81.79 15.00   Q 82.22 15.43 82.83 15.06   A 0.80 0.79 -28.9 0 0 83.13 14.03   Q 82.72 13.22 82.25 13.21"></path>
    <path stroke="#7c7a9a" d="   M 82.75 8.46   Q 82.96 8.87 83.30 8.99   Q 83.75 9.13 83.91 8.69   Q 84.38 7.37 83.25 6.96"></path>
    <path stroke="#d68d97" d="   M 142.71 46.75   C 122.44 37.28 99.66 46.27 78.54 37.75"></path>
    <path stroke="#d68d97" d="   M 143.96 38.75   Q 131.52 34.54 120.07 34.63   C 104.38 34.76 92.84 35.63 79.50 30.21"></path>
    <path stroke="#d68d97" d="   M 146.25 22.79   C 133.11 19.01 123.52 18.30 107.50 18.79"></path>
    <path stroke="#b76c7e" d="   M 107.50 18.79   L 106.46 18.25"></path>
    <path stroke="#d68d97" d="   M 145.21 30.75   C 132.65 25.71 122.29 25.93 107.25 26.29"></path>
    <path stroke="#d68d97" d="   M 146.00 25.04   C 132.34 20.54 122.91 20.82 106.54 21.00"></path>
    <path stroke="#d68d97" d="   M 145.50 28.29   C 132.53 23.41 120.51 23.79 105.75 24.04"></path>
    <path stroke="#dddbe2" d="   M 107.50 18.79   L 106.50 19.29"></path>
    <path stroke="#d68d97" d="   M 147.00 17.79   C 134.30 12.82 122.80 13.17 107.75 13.46"></path>
    <path stroke="#b76c7e" d="   M 107.46 13.00   L 107.46 12.00"></path>
    <path stroke="#d68d97" d="   M 146.71 20.00   C 133.96 15.22 120.93 15.41 107.54 15.75"></path>
    <path stroke="#dddbe2" d="   M 105.50 24.29   L 105.71 25.50"></path>
    <path stroke="#7ab21a" d="   M 67.79 23.78   C 58.23 21.45 50.03 17.39 41.25 13.35   A 1.45 1.43 -44.5 0 0 40.04 13.35   Q 28.37 18.78 18.40 26.86   Q 17.00 28.00 18.75 28.47   Q 31.74 31.99 43.46 38.58   A 2.13 2.12 46.9 0 0 45.41 38.65   Q 57.57 32.92 67.92 24.38   A 0.34 0.34 0.0 0 0 67.79 23.78"></path>
    <path stroke="#7c7a9a" d="   M 85.68 8.43   Q 85.39 8.73 85.44 9.25   Q 85.49 9.68 85.86 9.90   L 86.37 10.20   Q 87.38 10.81 87.05 9.68   L 86.76 8.71   Q 86.46 7.66 85.68 8.43"></path>
    <path stroke="#7c7a9a" d="   M 88.81 8.93   C 87.69 9.47 87.72 10.57 88.85 11.09   A 0.67 0.66 6.7 0 0 89.78 10.36   L 89.58 9.31   A 0.54 0.54 0.0 0 0 88.81 8.93"></path>
    <path stroke="#7c7a9a" d="   M 91.30 10.10   Q 90.76 10.88 91.25 11.73   Q 91.66 12.46 92.17 11.79   Q 92.87 10.85 92.13 10.04   A 0.54 0.54 0.0 0 0 91.30 10.10"></path>
    <path stroke="#7c7a9a" d="   M 83.13 11.59   L 83.93 12.59   A 0.60 0.60 0.0 0 0 84.99 12.29   Q 85.21 10.57 83.48 10.75   Q 82.54 10.85 83.13 11.59"></path>
    <path stroke="#7c7a9a" d="   M 94.42 10.73   C 93.73 11.45 94.28 12.29 95.22 12.00   Q 95.67 11.86 95.47 11.44   L 95.19 10.85   A 0.47 0.47 0.0 0 0 94.42 10.73"></path>
    <path stroke="#7c7a9a" d="   M 97.72 10.98   A 0.46 0.46 0.0 0 0 97.04 11.35   L 97.00 11.90   Q 96.96 12.32 97.36 12.45   Q 98.10 12.70 98.49 12.13   Q 98.85 11.58 98.28 11.27   L 97.72 10.98"></path>
    <path stroke="#7c7a9a" d="   M 101.55 11.86   C 101.04 10.45 99.57 11.08 100.06 12.39   Q 100.20 12.75 100.58 12.75   L 100.92 12.75   A 0.67 0.67 0.0 0 0 101.55 11.86"></path>
    <path stroke="#7c7a9a" d="   M 103.70 11.38   A 0.37 0.37 0.0 0 0 103.02 11.53   Q 102.84 12.71 103.76 12.97   A 0.47 0.47 0.0 0 0 104.28 12.26   L 103.70 11.38"></path>
    <path stroke="#7c7a9a" d="   M 86.12 12.04   A 0.21 0.20 -15.6 0 0 85.96 12.32   L 86.36 13.24   Q 86.60 13.79 87.10 13.47   C 88.73 12.45 87.24 11.84 86.12 12.04"></path>
    <path stroke="#7c7a9a" d="   M 90.51 14.01   Q 90.54 13.27 90.08 12.72   Q 89.48 12.00 89.15 12.87   Q 88.68 14.06 89.75 14.50   A 0.56 0.55 -77.4 0 0 90.51 14.01"></path>
    <path stroke="#7c7a9a" d="   M 92.04 13.58   Q 91.04 14.00 91.97 14.55   L 92.62 14.95   A 0.57 0.57 0.0 0 0 93.47 14.38   Q 93.27 13.07 92.04 13.58"></path>
    <path stroke="#7c7a9a" d="   M 95.24 14.40   Q 95.22 14.81 95.32 15.16   Q 95.69 16.48 96.18 15.20   Q 96.44 14.54 96.00 14.10   A 0.45 0.45 0.0 0 0 95.24 14.40"></path>
    <path stroke="#7c7a9a" d="   M 98.73 14.38   Q 97.88 14.61 98.14 15.54   A 0.32 0.30 79.7 0 0 98.46 15.77   Q 99.49 15.71 99.23 14.67   Q 99.13 14.27 98.73 14.38"></path>
    <path stroke="#7c7a9a" d="   M 101.12 14.77   L 101.06 15.62   A 0.44 0.44 0.0 0 0 101.80 15.98   Q 102.50 15.34 102.07 14.57   A 0.51 0.51 0.0 0 0 101.12 14.77"></path>
    <path stroke="#7c7a9a" d="   M 84.52 15.14   Q 84.62 15.76 85.10 16.25   Q 85.74 16.91 85.94 16.02   Q 86.18 14.97 85.16 14.60   A 0.49 0.48 -85.0 0 0 84.52 15.14"></path>
    <path stroke="#8f9ba1" d="   M 105.03 14.71   C 103.93 14.37 103.67 15.73 104.66 15.96   A 0.46 0.46 0.0 0 0 105.22 15.55   L 105.26 15.04   A 0.32 0.32 0.0 0 0 105.03 14.71"></path>
    <path stroke="#7c7a9a" d="   M 88.02 15.15   Q 87.37 14.95 87.32 15.62   L 87.26 16.52   A 0.72 0.72 0.0 0 0 88.19 17.26   C 89.48 16.86 89.00 15.45 88.02 15.15"></path>
    <path stroke="#7c7a9a" d="   M 90.55 16.15   C 89.86 16.90 90.43 18.09 91.30 17.94   Q 91.96 17.83 91.74 17.20   L 91.44 16.34   Q 91.15 15.51 90.55 16.15"></path>
    <path stroke="#7c7a9a" d="   M 82.66 16.73   Q 81.31 16.78 82.21 17.78   L 82.91 18.55   Q 83.43 19.13 83.67 18.40   Q 84.24 16.67 82.66 16.73"></path>
    <path stroke="#7c7a9a" d="   M 94.7185 18.0216   A 0.96 0.71 31.5 0 0 94.2710 16.9146   A 0.96 0.71 31.5 0 0 93.0815 17.0184   A 0.96 0.71 31.5 0 0 93.5290 18.1254   A 0.96 0.71 31.5 0 0 94.7185 18.0216"></path>
    <path stroke="#7c7a9a" d="   M 96.17 17.91   L 96.46 18.61   A 0.50 0.50 0.0 0 0 97.38 18.60   C 97.67 17.89 97.54 17.14 96.57 17.24   Q 95.93 17.31 96.17 17.91"></path>
    <path stroke="#7c7a9a" d="   M 99.58 17.53   A 0.49 0.49 0.0 0 0 98.97 18.28   L 99.55 18.95   Q 99.69 19.11 100.23 18.78   Q 100.35 18.70 100.48 18.56   Q 100.80 18.22 100.39 17.99   L 99.58 17.53"></path>
    <path stroke="#7c7a9a" d="   M 103.16 17.67   C 102.10 17.18 102.17 18.37 102.30 18.92   Q 102.59 20.15 103.14 19.01   L 103.42 18.41   Q 103.66 17.91 103.16 17.67"></path>
    <path stroke="#7c7a9a" d="   M 85.27 18.81   L 85.65 19.54   Q 86.11 20.43 86.43 19.47   L 86.56 19.07   Q 86.83 18.24 85.96 18.25   Q 85.78 18.25 85.60 18.26   Q 84.99 18.27 85.27 18.81"></path>
    <path stroke="#7c7a9a" d="   M 88.33 19.45   L 88.45 20.23   A 0.48 0.48 0.0 0 0 89.34 20.38   Q 89.79 19.56 89.14 19.00   A 0.49 0.49 0.0 0 0 88.33 19.45"></path>
    <path stroke="#7c7a9a" d="   M 91.84 19.67   Q 90.73 20.01 91.50 21.20   Q 92.20 22.29 92.38 21.00   L 92.49 20.22   A 0.51 0.50 -4.5 0 0 91.84 19.67"></path>
    <path stroke="#8f9ba1" d="   M 94.24 20.45   L 94.41 21.27   A 0.42 0.42 0.0 0 0 95.23 21.29   Q 95.52 20.24 94.62 20.07   A 0.32 0.32 0.0 0 0 94.24 20.45"></path>
    <path stroke="#7c7a9a" d="   M 97.23 20.89   L 97.34 21.71   A 0.47 0.46 -44.3 0 0 98.26 21.72   Q 98.37 21.03 98.00 20.56   A 0.44 0.43 -68.1 0 0 97.23 20.89"></path>
    <path stroke="#7c7a9a" d="   M 83.65 21.18   Q 83.81 21.96 84.54 22.28   Q 85.16 22.56 85.02 21.89   Q 84.83 20.98 84.07 20.79   A 0.34 0.34 0.0 0 0 83.65 21.18"></path>
    <path stroke="#8f9ba1" d="   M 100.31 20.84   Q 99.78 21.48 100.38 22.17   Q 100.81 22.68 101.12 22.08   Q 101.52 21.29 100.92 20.79   A 0.44 0.44 0.0 0 0 100.31 20.84"></path>
    <path stroke="#8f9ba1" d="   M 103.22 21.07   L 103.34 21.95   Q 103.43 22.57 103.92 22.20   C 104.52 21.75 104.35 20.59 103.45 20.76   A 0.29 0.28 -8.8 0 0 103.22 21.07"></path>
    <path stroke="#7c7a9a" d="   M 86.50 22.55   L 86.87 23.01   Q 87.25 23.47 87.61 23.00   C 88.09 22.37 87.51 21.75 86.88 21.75   A 0.49 0.49 0.0 0 0 86.50 22.55"></path>
    <path stroke="#7c7a9a" d="   M 89.51 22.84   Q 89.39 23.74 90.32 23.86   A 0.44 0.44 0.0 0 0 90.71 23.14   L 90.26 22.61   Q 89.63 21.90 89.51 22.84"></path>
    <path stroke="#8f9ba1" d="   M 92.81 22.97   Q 92.38 22.81 92.26 23.26   C 92.01 24.23 92.95 24.42 93.64 24.20   A 0.48 0.48 0.0 0 0 93.66 23.30   L 92.81 22.97"></path>
    <path stroke="#7c7a9a" d="   M 82.58 24.83   Q 83.28 24.96 83.03 24.29   L 82.68 23.37   A 0.62 0.62 0.0 0 0 81.48 23.57   Q 81.44 24.61 82.58 24.83"></path>
    <path stroke="#7c7a9a" d="   M 95.53 23.31   Q 94.78 24.31 95.88 24.96   A 0.40 0.40 0.0 0 0 96.48 24.62   L 96.48 23.63   A 0.53 0.53 0.0 0 0 95.53 23.31"></path>
    <path stroke="#8f9ba1" d="   M 98.64 23.80   A 0.53 0.53 0.0 0 0 98.49 24.83   L 99.07 25.01   A 0.45 0.44 84.3 0 0 99.59 24.37   Q 99.26 23.79 98.64 23.80"></path>
    <path stroke="#8f9ba1" d="   M 101.37 24.14   L 101.38 25.19   A 0.52 0.38 -51.3 0 0 102.26 24.96   Q 102.29 24.48 102.18 24.04   A 0.41 0.41 0.0 0 0 101.37 24.14"></path>
    <path stroke="#7c7a9a" d="   M 84.86 24.51   L 84.61 24.77   Q 84.06 25.31 84.76 25.64   L 85.46 25.98   Q 86.09 26.28 85.90 25.62   L 85.65 24.72   Q 85.43 23.94 84.86 24.51"></path>
    <path stroke="#7c7a9a" d="   M 87.92 24.98   A 0.49 0.48 -73.7 0 0 87.30 25.32   Q 87.02 26.43 88.10 26.65   Q 88.57 26.74 88.73 26.30   C 89.01 25.51 88.59 25.19 87.92 24.98"></path>
    <path stroke="#7c7a9a" d="   M 90.41 25.78   A 0.60 0.60 0.0 0 0 90.34 26.92   L 91.21 27.23   A 0.46 0.46 0.0 0 0 91.81 26.65   Q 91.42 25.54 90.41 25.78"></path>
    <path stroke="#7c7a9a" d="   M 93.28 26.61   Q 93.23 26.83 93.24 27.02   Q 93.25 27.45 93.67 27.52   Q 94.44 27.66 94.50 27.25   A 0.77 0.20 -78.7 0 0 94.46 26.51   L 93.96 26.28   Q 93.41 26.02 93.28 26.61"></path>
    <path stroke="#7c7a9a" d="   M 96.79 26.57   A 0.55 0.55 0.0 0 0 95.97 27.22   Q 96.29 28.05 97.27 27.65   Q 97.98 27.36 97.34 26.93   L 96.79 26.57"></path>
    <path stroke="#8f9ba1" d="   M 99.15 26.89   A 0.34 0.34 0.0 0 0 99.09 27.43   L 99.64 27.98   A 0.35 0.35 0.0 0 0 100.22 27.83   C 100.45 27.11 99.93 26.43 99.15 26.89"></path>
    <path stroke="#9b9bb3" d="   M 102.21 27.52   L 102.54 28.24   A 0.44 0.43 43.4 0 0 103.34 28.22   Q 103.62 27.52 102.82 26.99   A 0.42 0.42 0.0 0 0 102.21 27.52"></path>
    <path stroke="#ece86c" d="   M 32.00 26.79   L 32.64 28.48"></path>
    <path stroke="#7c7b38" d="   M 32.64 28.48   Q 38.39 36.00 46.79 34.37   C 52.01 33.35 54.89 29.57 53.21 24.25"></path>
    <path stroke="#ece86c" d="   M 53.21 24.25   Q 53.01 22.89 51.75 22.21"></path>
    <path stroke="#7c7b38" d="   M 51.75 22.21   Q 44.44 14.40 35.31 18.81   Q 30.68 21.06 32.00 26.79"></path>
    <path stroke="#748fa3" d="   M 51.75 22.21   Q 41.13 21.57 32.00 26.79"></path>
    <path stroke="#748fa3" d="   M 53.21 24.25   Q 41.96 21.86 32.64 28.48"></path>
  </g>
  <path fill="#212120" fill-opacity="0.988" d="   M 83.75 6.21   L 83.25 6.96   L 82.75 8.46   L 82.25 13.21   L 81.79 15.00   L 81.25 19.46   L 80.79 21.00   Q 80.02 23.06 80.29 25.25   Q 79.26 26.16 80.25 26.96   Q 78.96 28.25 79.50 30.21   Q 78.71 31.13 79.29 32.25   Q 78.41 33.72 78.50 35.46   Q 77.93 36.61 78.54 37.75   Q 77.55 39.19 78.50 40.71   C 76.92 41.58 79.28 52.99 79.73 56.71   Q 79.80 57.32 79.22 57.53   L 78.63 57.75   Q 77.94 58.00 77.81 57.28   L 76.63 50.60   A 0.29 0.29 0.0 0 0 76.06 50.60   C 75.84 51.87 75.49 58.39 74.20 58.23   Q 73.71 58.17 73.73 57.68   C 73.82 55.93 76.41 39.53 74.63 39.71   L 69.57 5.23   Q 69.11 3.98 68.16 3.76   A 0.68 0.67 -59.3 0 1 67.87 2.60   Q 69.75 0.92 72.07 1.87   Q 72.69 2.12 72.46 2.74   C 72.08 3.78 71.65 4.64 71.85 5.78   Q 74.58 20.91 76.26 35.93   A 0.26 0.26 0.0 0 0 76.77 35.94   L 81.39 5.25   Q 81.48 4.64 81.23 4.08   C 80.42 2.28 81.87 0.55 83.57 1.60   Q 84.09 1.92 83.85 2.48   Q 83.03 4.41 83.75 6.21   Z"></path>
  <path fill="#009033" d="   M 69.57 5.23   L 74.63 39.71   C 64.17 44.08 50.47 43.84 39.32 43.19   Q 26.62 42.46 15.29 47.09   A 0.43 0.43 0.0 0 1 14.70 46.76   L 9.62 13.72   Q 9.55 13.24 9.94 12.96   C 14.26 9.90 23.37 8.88 28.25 8.82   C 42.33 8.65 55.93 10.47 69.57 5.23   Z   M 67.79 23.78   C 58.23 21.45 50.03 17.39 41.25 13.35   A 1.45 1.43 -44.5 0 0 40.04 13.35   Q 28.37 18.78 18.40 26.86   Q 17.00 28.00 18.75 28.47   Q 31.74 31.99 43.46 38.58   A 2.13 2.12 46.9 0 0 45.41 38.65   Q 57.57 32.92 67.92 24.38   A 0.34 0.34 0.0 0 0 67.79 23.78   Z"></path>
  <path fill="#3a3a6b" d="   M 83.75 6.21   C 91.66 9.46 98.74 9.94 108.00 10.54   L 107.46 12.00   L 106.38 11.71   Q 106.12 11.63 106.04 11.89   L 105.95 12.15   Q 105.79 12.65 106.30 12.76   L 107.46 13.00   L 107.75 13.46   Q 106.60 14.58 107.54 15.75   L 106.46 18.25   Q 106.10 17.83 105.52 17.90   Q 105.24 17.93 105.25 18.21   Q 105.25 18.35 105.25 18.50   Q 105.25 18.79 105.52 18.89   L 106.50 19.29   L 106.54 21.00   Q 105.69 22.40 105.75 24.04   L 105.50 24.29   Q 104.91 23.97 104.48 24.05   Q 103.84 24.17 104.07 24.78   Q 104.46 25.81 105.71 25.50   Q 106.03 26.59 107.25 26.29   Q 106.66 26.73 105.97 26.70   Q 105.56 26.68 105.51 27.10   Q 105.38 28.15 105.75 29.36   Q 92.65 29.51 80.29 25.25   Q 80.02 23.06 80.79 21.00   L 81.13 21.15   Q 81.74 21.42 81.95 20.79   Q 82.25 19.93 81.25 19.46   L 81.79 15.00   Q 82.22 15.43 82.83 15.06   A 0.80 0.79 -28.9 0 0 83.13 14.03   Q 82.72 13.22 82.25 13.21   L 82.75 8.46   Q 82.96 8.87 83.30 8.99   Q 83.75 9.13 83.91 8.69   Q 84.38 7.37 83.25 6.96   L 83.75 6.21   Z   M 85.68 8.43   Q 85.39 8.73 85.44 9.25   Q 85.49 9.68 85.86 9.90   L 86.37 10.20   Q 87.38 10.81 87.05 9.68   L 86.76 8.71   Q 86.46 7.66 85.68 8.43   Z   M 88.81 8.93   C 87.69 9.47 87.72 10.57 88.85 11.09   A 0.67 0.66 6.7 0 0 89.78 10.36   L 89.58 9.31   A 0.54 0.54 0.0 0 0 88.81 8.93   Z   M 91.30 10.10   Q 90.76 10.88 91.25 11.73   Q 91.66 12.46 92.17 11.79   Q 92.87 10.85 92.13 10.04   A 0.54 0.54 0.0 0 0 91.30 10.10   Z   M 83.13 11.59   L 83.93 12.59   A 0.60 0.60 0.0 0 0 84.99 12.29   Q 85.21 10.57 83.48 10.75   Q 82.54 10.85 83.13 11.59   Z   M 94.42 10.73   C 93.73 11.45 94.28 12.29 95.22 12.00   Q 95.67 11.86 95.47 11.44   L 95.19 10.85   A 0.47 0.47 0.0 0 0 94.42 10.73   Z   M 97.72 10.98   A 0.46 0.46 0.0 0 0 97.04 11.35   L 97.00 11.90   Q 96.96 12.32 97.36 12.45   Q 98.10 12.70 98.49 12.13   Q 98.85 11.58 98.28 11.27   L 97.72 10.98   Z   M 101.55 11.86   C 101.04 10.45 99.57 11.08 100.06 12.39   Q 100.20 12.75 100.58 12.75   L 100.92 12.75   A 0.67 0.67 0.0 0 0 101.55 11.86   Z   M 103.70 11.38   A 0.37 0.37 0.0 0 0 103.02 11.53   Q 102.84 12.71 103.76 12.97   A 0.47 0.47 0.0 0 0 104.28 12.26   L 103.70 11.38   Z   M 86.12 12.04   A 0.21 0.20 -15.6 0 0 85.96 12.32   L 86.36 13.24   Q 86.60 13.79 87.10 13.47   C 88.73 12.45 87.24 11.84 86.12 12.04   Z   M 90.51 14.01   Q 90.54 13.27 90.08 12.72   Q 89.48 12.00 89.15 12.87   Q 88.68 14.06 89.75 14.50   A 0.56 0.55 -77.4 0 0 90.51 14.01   Z   M 92.04 13.58   Q 91.04 14.00 91.97 14.55   L 92.62 14.95   A 0.57 0.57 0.0 0 0 93.47 14.38   Q 93.27 13.07 92.04 13.58   Z   M 95.24 14.40   Q 95.22 14.81 95.32 15.16   Q 95.69 16.48 96.18 15.20   Q 96.44 14.54 96.00 14.10   A 0.45 0.45 0.0 0 0 95.24 14.40   Z   M 98.73 14.38   Q 97.88 14.61 98.14 15.54   A 0.32 0.30 79.7 0 0 98.46 15.77   Q 99.49 15.71 99.23 14.67   Q 99.13 14.27 98.73 14.38   Z   M 101.12 14.77   L 101.06 15.62   A 0.44 0.44 0.0 0 0 101.80 15.98   Q 102.50 15.34 102.07 14.57   A 0.51 0.51 0.0 0 0 101.12 14.77   Z   M 84.52 15.14   Q 84.62 15.76 85.10 16.25   Q 85.74 16.91 85.94 16.02   Q 86.18 14.97 85.16 14.60   A 0.49 0.48 -85.0 0 0 84.52 15.14   Z   M 105.03 14.71   C 103.93 14.37 103.67 15.73 104.66 15.96   A 0.46 0.46 0.0 0 0 105.22 15.55   L 105.26 15.04   A 0.32 0.32 0.0 0 0 105.03 14.71   Z   M 88.02 15.15   Q 87.37 14.95 87.32 15.62   L 87.26 16.52   A 0.72 0.72 0.0 0 0 88.19 17.26   C 89.48 16.86 89.00 15.45 88.02 15.15   Z   M 90.55 16.15   C 89.86 16.90 90.43 18.09 91.30 17.94   Q 91.96 17.83 91.74 17.20   L 91.44 16.34   Q 91.15 15.51 90.55 16.15   Z   M 82.66 16.73   Q 81.31 16.78 82.21 17.78   L 82.91 18.55   Q 83.43 19.13 83.67 18.40   Q 84.24 16.67 82.66 16.73   Z   M 94.7185 18.0216   A 0.96 0.71 31.5 0 0 94.2710 16.9146   A 0.96 0.71 31.5 0 0 93.0815 17.0184   A 0.96 0.71 31.5 0 0 93.5290 18.1254   A 0.96 0.71 31.5 0 0 94.7185 18.0216   Z   M 96.17 17.91   L 96.46 18.61   A 0.50 0.50 0.0 0 0 97.38 18.60   C 97.67 17.89 97.54 17.14 96.57 17.24   Q 95.93 17.31 96.17 17.91   Z   M 99.58 17.53   A 0.49 0.49 0.0 0 0 98.97 18.28   L 99.55 18.95   Q 99.69 19.11 100.23 18.78   Q 100.35 18.70 100.48 18.56   Q 100.80 18.22 100.39 17.99   L 99.58 17.53   Z   M 103.16 17.67   C 102.10 17.18 102.17 18.37 102.30 18.92   Q 102.59 20.15 103.14 19.01   L 103.42 18.41   Q 103.66 17.91 103.16 17.67   Z   M 85.27 18.81   L 85.65 19.54   Q 86.11 20.43 86.43 19.47   L 86.56 19.07   Q 86.83 18.24 85.96 18.25   Q 85.78 18.25 85.60 18.26   Q 84.99 18.27 85.27 18.81   Z   M 88.33 19.45   L 88.45 20.23   A 0.48 0.48 0.0 0 0 89.34 20.38   Q 89.79 19.56 89.14 19.00   A 0.49 0.49 0.0 0 0 88.33 19.45   Z   M 91.84 19.67   Q 90.73 20.01 91.50 21.20   Q 92.20 22.29 92.38 21.00   L 92.49 20.22   A 0.51 0.50 -4.5 0 0 91.84 19.67   Z   M 94.24 20.45   L 94.41 21.27   A 0.42 0.42 0.0 0 0 95.23 21.29   Q 95.52 20.24 94.62 20.07   A 0.32 0.32 0.0 0 0 94.24 20.45   Z   M 97.23 20.89   L 97.34 21.71   A 0.47 0.46 -44.3 0 0 98.26 21.72   Q 98.37 21.03 98.00 20.56   A 0.44 0.43 -68.1 0 0 97.23 20.89   Z   M 83.65 21.18   Q 83.81 21.96 84.54 22.28   Q 85.16 22.56 85.02 21.89   Q 84.83 20.98 84.07 20.79   A 0.34 0.34 0.0 0 0 83.65 21.18   Z   M 100.31 20.84   Q 99.78 21.48 100.38 22.17   Q 100.81 22.68 101.12 22.08   Q 101.52 21.29 100.92 20.79   A 0.44 0.44 0.0 0 0 100.31 20.84   Z   M 103.22 21.07   L 103.34 21.95   Q 103.43 22.57 103.92 22.20   C 104.52 21.75 104.35 20.59 103.45 20.76   A 0.29 0.28 -8.8 0 0 103.22 21.07   Z   M 86.50 22.55   L 86.87 23.01   Q 87.25 23.47 87.61 23.00   C 88.09 22.37 87.51 21.75 86.88 21.75   A 0.49 0.49 0.0 0 0 86.50 22.55   Z   M 89.51 22.84   Q 89.39 23.74 90.32 23.86   A 0.44 0.44 0.0 0 0 90.71 23.14   L 90.26 22.61   Q 89.63 21.90 89.51 22.84   Z   M 92.81 22.97   Q 92.38 22.81 92.26 23.26   C 92.01 24.23 92.95 24.42 93.64 24.20   A 0.48 0.48 0.0 0 0 93.66 23.30   L 92.81 22.97   Z   M 82.58 24.83   Q 83.28 24.96 83.03 24.29   L 82.68 23.37   A 0.62 0.62 0.0 0 0 81.48 23.57   Q 81.44 24.61 82.58 24.83   Z   M 95.53 23.31   Q 94.78 24.31 95.88 24.96   A 0.40 0.40 0.0 0 0 96.48 24.62   L 96.48 23.63   A 0.53 0.53 0.0 0 0 95.53 23.31   Z   M 98.64 23.80   A 0.53 0.53 0.0 0 0 98.49 24.83   L 99.07 25.01   A 0.45 0.44 84.3 0 0 99.59 24.37   Q 99.26 23.79 98.64 23.80   Z   M 101.37 24.14   L 101.38 25.19   A 0.52 0.38 -51.3 0 0 102.26 24.96   Q 102.29 24.48 102.18 24.04   A 0.41 0.41 0.0 0 0 101.37 24.14   Z   M 84.86 24.51   L 84.61 24.77   Q 84.06 25.31 84.76 25.64   L 85.46 25.98   Q 86.09 26.28 85.90 25.62   L 85.65 24.72   Q 85.43 23.94 84.86 24.51   Z   M 87.92 24.98   A 0.49 0.48 -73.7 0 0 87.30 25.32   Q 87.02 26.43 88.10 26.65   Q 88.57 26.74 88.73 26.30   C 89.01 25.51 88.59 25.19 87.92 24.98   Z   M 90.41 25.78   A 0.60 0.60 0.0 0 0 90.34 26.92   L 91.21 27.23   A 0.46 0.46 0.0 0 0 91.81 26.65   Q 91.42 25.54 90.41 25.78   Z   M 93.28 26.61   Q 93.23 26.83 93.24 27.02   Q 93.25 27.45 93.67 27.52   Q 94.44 27.66 94.50 27.25   A 0.77 0.20 -78.7 0 0 94.46 26.51   L 93.96 26.28   Q 93.41 26.02 93.28 26.61   Z   M 96.79 26.57   A 0.55 0.55 0.0 0 0 95.97 27.22   Q 96.29 28.05 97.27 27.65   Q 97.98 27.36 97.34 26.93   L 96.79 26.57   Z   M 99.15 26.89   A 0.34 0.34 0.0 0 0 99.09 27.43   L 99.64 27.98   A 0.35 0.35 0.0 0 0 100.22 27.83   C 100.45 27.11 99.93 26.43 99.15 26.89   Z   M 102.21 27.52   L 102.54 28.24   A 0.44 0.43 43.4 0 0 103.34 28.22   Q 103.62 27.52 102.82 26.99   A 0.42 0.42 0.0 0 0 102.21 27.52   Z"></path>
  <path fill="#bebac9" d="   M 83.25 6.96   Q 84.38 7.37 83.91 8.69   Q 83.75 9.13 83.30 8.99   Q 82.96 8.87 82.75 8.46   L 83.25 6.96   Z"></path>
  <path fill="#bebac9" d="   M 86.76 8.71   L 87.05 9.68   Q 87.38 10.81 86.37 10.20   L 85.86 9.90   Q 85.49 9.68 85.44 9.25   Q 85.39 8.73 85.68 8.43   Q 86.46 7.66 86.76 8.71   Z"></path>
  <path fill="#bebac9" d="   M 88.81 8.93   A 0.54 0.54 0.0 0 1 89.58 9.31   L 89.78 10.36   A 0.67 0.66 6.7 0 1 88.85 11.09   C 87.72 10.57 87.69 9.47 88.81 8.93   Z"></path>
  <path fill="#bebac9" d="   M 91.30 10.10   A 0.54 0.54 0.0 0 1 92.13 10.04   Q 92.87 10.85 92.17 11.79   Q 91.66 12.46 91.25 11.73   Q 90.76 10.88 91.30 10.10   Z"></path>
  <path fill="#b01e32" d="   M 108.00 10.54   C 122.14 10.04 134.77 10.11 146.77 14.75   Q 147.26 14.94 147.42 15.43   Q 147.81 16.60 147.00 17.79   C 134.30 12.82 122.80 13.17 107.75 13.46   L 107.46 13.00   L 107.46 12.00   L 108.00 10.54   Z"></path>
  <path fill="#bebac9" d="   M 83.48 10.75   Q 85.21 10.57 84.99 12.29   A 0.60 0.60 0.0 0 1 83.93 12.59   L 83.13 11.59   Q 82.54 10.85 83.48 10.75   Z"></path>
  <path fill="#bebac9" d="   M 94.42 10.73   A 0.47 0.47 0.0 0 1 95.19 10.85   L 95.47 11.44   Q 95.67 11.86 95.22 12.00   C 94.28 12.29 93.73 11.45 94.42 10.73   Z"></path>
  <path fill="#bebac9" d="   M 97.72 10.98   L 98.28 11.27   Q 98.85 11.58 98.49 12.13   Q 98.10 12.70 97.36 12.45   Q 96.96 12.32 97.00 11.90   L 97.04 11.35   A 0.46 0.46 0.0 0 1 97.72 10.98   Z"></path>
  <path fill="#bebac9" d="   M 100.06 12.39   C 99.57 11.08 101.04 10.45 101.55 11.86   A 0.67 0.67 0.0 0 1 100.92 12.75   L 100.58 12.75   Q 100.20 12.75 100.06 12.39   Z"></path>
  <path fill="#bebac9" d="   M 103.70 11.38   L 104.28 12.26   A 0.47 0.47 0.0 0 1 103.76 12.97   Q 102.84 12.71 103.02 11.53   A 0.37 0.37 0.0 0 1 103.70 11.38   Z"></path>
  <path fill="#bebac9" d="   M 107.46 12.00   L 107.46 13.00   L 106.30 12.76   Q 105.79 12.65 105.95 12.15   L 106.04 11.89   Q 106.12 11.63 106.38 11.71   L 107.46 12.00   Z"></path>
  <path fill="#bebac9" d="   M 86.12 12.04   C 87.24 11.84 88.73 12.45 87.10 13.47   Q 86.60 13.79 86.36 13.24   L 85.96 12.32   A 0.21 0.20 -15.6 0 1 86.12 12.04   Z"></path>
  <path fill="#bebac9" d="   M 90.51 14.01   A 0.56 0.55 -77.4 0 1 89.75 14.50   Q 88.68 14.06 89.15 12.87   Q 89.48 12.00 90.08 12.72   Q 90.54 13.27 90.51 14.01   Z"></path>
  <path fill="#f4d400" d="   M 41.25 13.35   C 50.03 17.39 58.23 21.45 67.79 23.78   A 0.34 0.34 0.0 0 1 67.92 24.38   Q 57.57 32.92 45.41 38.65   A 2.13 2.12 46.9 0 1 43.46 38.58   Q 31.74 31.99 18.75 28.47   Q 17.00 28.00 18.40 26.86   Q 28.37 18.78 40.04 13.35   A 1.45 1.43 -44.5 0 1 41.25 13.35   Z   M 32.00 26.79   L 32.64 28.48   Q 38.39 36.00 46.79 34.37   C 52.01 33.35 54.89 29.57 53.21 24.25   Q 53.01 22.89 51.75 22.21   Q 44.44 14.40 35.31 18.81   Q 30.68 21.06 32.00 26.79   Z"></path>
  <path fill="#bebac9" d="   M 82.25 13.21   Q 82.72 13.22 83.13 14.03   A 0.80 0.79 -28.9 0 1 82.83 15.06   Q 82.22 15.43 81.79 15.00   L 82.25 13.21   Z"></path>
  <path fill="#fbfbfb" d="   M 147.00 17.79   Q 147.37 18.95 146.71 20.00   C 133.96 15.22 120.93 15.41 107.54 15.75   Q 106.60 14.58 107.75 13.46   C 122.80 13.17 134.30 12.82 147.00 17.79   Z"></path>
  <path fill="#bebac9" d="   M 92.04 13.58   Q 93.27 13.07 93.47 14.38   A 0.57 0.57 0.0 0 1 92.62 14.95   L 91.97 14.55   Q 91.04 14.00 92.04 13.58   Z"></path>
  <path fill="#bebac9" d="   M 95.24 14.40   A 0.45 0.45 0.0 0 1 96.00 14.10   Q 96.44 14.54 96.18 15.20   Q 95.69 16.48 95.32 15.16   Q 95.22 14.81 95.24 14.40   Z"></path>
  <path fill="#bebac9" d="   M 98.73 14.38   Q 99.13 14.27 99.23 14.67   Q 99.49 15.71 98.46 15.77   A 0.32 0.30 79.7 0 1 98.14 15.54   Q 97.88 14.61 98.73 14.38   Z"></path>
  <path fill="#bebac9" d="   M 101.12 14.77   A 0.51 0.51 0.0 0 1 102.07 14.57   Q 102.50 15.34 101.80 15.98   A 0.44 0.44 0.0 0 1 101.06 15.62   L 101.12 14.77   Z"></path>
  <path fill="#bebac9" d="   M 84.52 15.14   A 0.49 0.48 -85.0 0 1 85.16 14.60   Q 86.18 14.97 85.94 16.02   Q 85.74 16.91 85.10 16.25   Q 84.62 15.76 84.52 15.14   Z"></path>
  <path fill="#e4fcd7" d="   M 105.03 14.71   A 0.32 0.32 0.0 0 1 105.26 15.04   L 105.22 15.55   A 0.46 0.46 0.0 0 1 104.66 15.96   C 103.67 15.73 103.93 14.37 105.03 14.71   Z"></path>
  <path fill="#bebac9" d="   M 88.02 15.15   C 89.00 15.45 89.48 16.86 88.19 17.26   A 0.72 0.72 0.0 0 1 87.26 16.52   L 87.32 15.62   Q 87.37 14.95 88.02 15.15   Z"></path>
  <path fill="#b01e32" d="   M 146.71 20.00   Q 147.09 21.53 146.25 22.79   C 133.11 19.01 123.52 18.30 107.50 18.79   L 106.46 18.25   L 107.54 15.75   C 120.93 15.41 133.96 15.22 146.71 20.00   Z"></path>
  <path fill="#bebac9" d="   M 91.44 16.34   L 91.74 17.20   Q 91.96 17.83 91.30 17.94   C 90.43 18.09 89.86 16.90 90.55 16.15   Q 91.15 15.51 91.44 16.34   Z"></path>
  <path fill="#bebac9" d="   M 82.66 16.73   Q 84.24 16.67 83.67 18.40   Q 83.43 19.13 82.91 18.55   L 82.21 17.78   Q 81.31 16.78 82.66 16.73   Z"></path>
  <ellipse fill="#bebac9" cx="0.00" cy="0.00" transform="translate(93.90,17.52) rotate(31.5)" rx="0.96" ry="0.71"></ellipse>
  <path fill="#bebac9" d="   M 96.57 17.24   C 97.54 17.14 97.67 17.89 97.38 18.60   A 0.50 0.50 0.0 0 1 96.46 18.61   L 96.17 17.91   Q 95.93 17.31 96.57 17.24   Z"></path>
  <path fill="#04216f" d="   M 51.75 22.21   Q 41.13 21.57 32.00 26.79   Q 30.68 21.06 35.31 18.81   Q 44.44 14.40 51.75 22.21   Z"></path>
  <path fill="#bebac9" d="   M 99.58 17.53   L 100.39 17.99   Q 100.80 18.22 100.48 18.56   Q 100.35 18.70 100.23 18.78   Q 99.69 19.11 99.55 18.95   L 98.97 18.28   A 0.49 0.49 0.0 0 1 99.58 17.53   Z"></path>
  <path fill="#bebac9" d="   M 103.16 17.67   Q 103.66 17.91 103.42 18.41   L 103.14 19.01   Q 102.59 20.15 102.30 18.92   C 102.17 18.37 102.10 17.18 103.16 17.67   Z"></path>
  <path fill="#bebac9" d="   M 106.46 18.25   L 107.50 18.79   L 106.50 19.29   L 105.52 18.89   Q 105.25 18.79 105.25 18.50   Q 105.25 18.35 105.25 18.21   Q 105.24 17.93 105.52 17.90   Q 106.10 17.83 106.46 18.25   Z"></path>
  <path fill="#bebac9" d="   M 85.60 18.26   Q 85.78 18.25 85.96 18.25   Q 86.83 18.24 86.56 19.07   L 86.43 19.47   Q 86.11 20.43 85.65 19.54   L 85.27 18.81   Q 84.99 18.27 85.60 18.26   Z"></path>
  <path fill="#fbfbfb" d="   M 107.50 18.79   C 123.52 18.30 133.11 19.01 146.25 22.79   Q 146.75 23.96 146.00 25.04   C 132.34 20.54 122.91 20.82 106.54 21.00   L 106.50 19.29   L 107.50 18.79   Z"></path>
  <path fill="#bebac9" d="   M 88.33 19.45   A 0.49 0.49 0.0 0 1 89.14 19.00   Q 89.79 19.56 89.34 20.38   A 0.48 0.48 0.0 0 1 88.45 20.23   L 88.33 19.45   Z"></path>
  <path fill="#bebac9" d="   M 81.25 19.46   Q 82.25 19.93 81.95 20.79   Q 81.74 21.42 81.13 21.15   L 80.79 21.00   L 81.25 19.46   Z"></path>
  <path fill="#bebac9" d="   M 91.84 19.67   A 0.51 0.50 -4.5 0 1 92.49 20.22   L 92.38 21.00   Q 92.20 22.29 91.50 21.20   Q 90.73 20.01 91.84 19.67   Z"></path>
  <path fill="#e4fcd7" d="   M 94.24 20.45   A 0.32 0.32 0.0 0 1 94.62 20.07   Q 95.52 20.24 95.23 21.29   A 0.42 0.42 0.0 0 1 94.41 21.27   L 94.24 20.45   Z"></path>
  <path fill="#bebac9" d="   M 97.23 20.89   A 0.44 0.43 -68.1 0 1 98.00 20.56   Q 98.37 21.03 98.26 21.72   A 0.47 0.46 -44.3 0 1 97.34 21.71   L 97.23 20.89   Z"></path>
  <path fill="#bebac9" d="   M 83.65 21.18   A 0.34 0.34 0.0 0 1 84.07 20.79   Q 84.83 20.98 85.02 21.89   Q 85.16 22.56 84.54 22.28   Q 83.81 21.96 83.65 21.18   Z"></path>
  <path fill="#e4fcd7" d="   M 100.31 20.84   A 0.44 0.44 0.0 0 1 100.92 20.79   Q 101.52 21.29 101.12 22.08   Q 100.81 22.68 100.38 22.17   Q 99.78 21.48 100.31 20.84   Z"></path>
  <path fill="#e4fcd7" d="   M 103.22 21.07   A 0.29 0.28 -8.8 0 1 103.45 20.76   C 104.35 20.59 104.52 21.75 103.92 22.20   Q 103.43 22.57 103.34 21.95   L 103.22 21.07   Z"></path>
  <path fill="#b01e32" d="   M 146.00 25.04   L 145.50 28.29   C 132.53 23.41 120.51 23.79 105.75 24.04   Q 105.69 22.40 106.54 21.00   C 122.91 20.82 132.34 20.54 146.00 25.04   Z"></path>
  <path fill="#bebac9" d="   M 86.50 22.55   A 0.49 0.49 0.0 0 1 86.88 21.75   C 87.51 21.75 88.09 22.37 87.61 23.00   Q 87.25 23.47 86.87 23.01   L 86.50 22.55   Z"></path>
  <path fill="#e4fcd7" d="   M 51.75 22.21   Q 53.01 22.89 53.21 24.25   Q 41.96 21.86 32.64 28.48   L 32.00 26.79   Q 41.13 21.57 51.75 22.21   Z"></path>
  <path fill="#bebac9" d="   M 90.26 22.61   L 90.71 23.14   A 0.44 0.44 0.0 0 1 90.32 23.86   Q 89.39 23.74 89.51 22.84   Q 89.63 21.90 90.26 22.61   Z"></path>
  <path fill="#e4fcd7" d="   M 92.81 22.97   L 93.66 23.30   A 0.48 0.48 0.0 0 1 93.64 24.20   C 92.95 24.42 92.01 24.23 92.26 23.26   Q 92.38 22.81 92.81 22.97   Z"></path>
  <path fill="#bebac9" d="   M 82.58 24.83   Q 81.44 24.61 81.48 23.57   A 0.62 0.62 0.0 0 1 82.68 23.37   L 83.03 24.29   Q 83.28 24.96 82.58 24.83   Z"></path>
  <path fill="#bebac9" d="   M 95.53 23.31   A 0.53 0.53 0.0 0 1 96.48 23.63   L 96.48 24.62   A 0.40 0.40 0.0 0 1 95.88 24.96   Q 94.78 24.31 95.53 23.31   Z"></path>
  <path fill="#04216f" d="   M 53.21 24.25   C 54.89 29.57 52.01 33.35 46.79 34.37   Q 38.39 36.00 32.64 28.48   Q 41.96 21.86 53.21 24.25   Z"></path>
  <path fill="#e4fcd7" d="   M 98.64 23.80   Q 99.26 23.79 99.59 24.37   A 0.45 0.44 84.3 0 1 99.07 25.01   L 98.49 24.83   A 0.53 0.53 0.0 0 1 98.64 23.80   Z"></path>
  <path fill="#e4fcd7" d="   M 101.37 24.14   A 0.41 0.41 0.0 0 1 102.18 24.04   Q 102.29 24.48 102.26 24.96   A 0.52 0.38 -51.3 0 1 101.38 25.19   L 101.37 24.14   Z"></path>
  <path fill="#bebac9" d="   M 105.50 24.29   L 105.71 25.50   Q 104.46 25.81 104.07 24.78   Q 103.84 24.17 104.48 24.05   Q 104.91 23.97 105.50 24.29   Z"></path>
  <path fill="#fbfbfb" d="   M 105.75 24.04   C 120.51 23.79 132.53 23.41 145.50 28.29   L 145.21 30.75   C 132.65 25.71 122.29 25.93 107.25 26.29   Q 106.03 26.59 105.71 25.50   L 105.50 24.29   L 105.75 24.04   Z"></path>
  <path fill="#bebac9" d="   M 85.65 24.72   L 85.90 25.62   Q 86.09 26.28 85.46 25.98   L 84.76 25.64   Q 84.06 25.31 84.61 24.77   L 84.86 24.51   Q 85.43 23.94 85.65 24.72   Z"></path>
  <path fill="#bebac9" d="   M 87.92 24.98   C 88.59 25.19 89.01 25.51 88.73 26.30   Q 88.57 26.74 88.10 26.65   Q 87.02 26.43 87.30 25.32   A 0.49 0.48 -73.7 0 1 87.92 24.98   Z"></path>
  <path fill="#fbfbfb" d="   M 80.29 25.25   Q 92.65 29.51 105.75 29.36   C 119.50 29.38 131.54 28.67 144.71 33.75   Q 145.19 34.79 144.46 35.75   Q 131.76 31.42 121.50 31.50   C 107.79 31.61 93.02 32.91 80.25 26.96   Q 79.26 26.16 80.29 25.25   Z"></path>
  <path fill="#bebac9" d="   M 90.41 25.78   Q 91.42 25.54 91.81 26.65   A 0.46 0.46 0.0 0 1 91.21 27.23   L 90.34 26.92   A 0.60 0.60 0.0 0 1 90.41 25.78   Z"></path>
  <path fill="#bebac9" d="   M 93.96 26.28   L 94.46 26.51   A 0.77 0.20 -78.7 0 1 94.50 27.25   Q 94.44 27.66 93.67 27.52   Q 93.25 27.45 93.24 27.02   Q 93.23 26.83 93.28 26.61   Q 93.41 26.02 93.96 26.28   Z"></path>
  <path fill="#b01e32" d="   M 107.25 26.29   C 122.29 25.93 132.65 25.71 145.21 30.75   L 144.71 33.75   C 131.54 28.67 119.50 29.38 105.75 29.36   Q 105.38 28.15 105.51 27.10   Q 105.56 26.68 105.97 26.70   Q 106.66 26.73 107.25 26.29   Z"></path>
  <path fill="#bebac9" d="   M 96.79 26.57   L 97.34 26.93   Q 97.98 27.36 97.27 27.65   Q 96.29 28.05 95.97 27.22   A 0.55 0.55 0.0 0 1 96.79 26.57   Z"></path>
  <path fill="#e4fcd7" d="   M 99.15 26.89   C 99.93 26.43 100.45 27.11 100.22 27.83   A 0.35 0.35 0.0 0 1 99.64 27.98   L 99.09 27.43   A 0.34 0.34 0.0 0 1 99.15 26.89   Z"></path>
  <path fill="#b01e32" d="   M 80.25 26.96   C 93.02 32.91 107.79 31.61 121.50 31.50   Q 131.76 31.42 144.46 35.75   L 143.96 38.75   Q 131.52 34.54 120.07 34.63   C 104.38 34.76 92.84 35.63 79.50 30.21   Q 78.96 28.25 80.25 26.96   Z"></path>
  <path fill="#fbfbfb" d="   M 102.21 27.52   A 0.42 0.42 0.0 0 1 102.82 26.99   Q 103.62 27.52 103.34 28.22   A 0.44 0.43 43.4 0 1 102.54 28.24   L 102.21 27.52   Z"></path>
  <path fill="#fbfbfb" d="   M 79.50 30.21   C 92.84 35.63 104.38 34.76 120.07 34.63   Q 131.52 34.54 143.96 38.75   L 143.71 41.00   C 128.01 35.65 113.75 36.91 98.26 36.69   Q 88.86 36.56 79.29 32.25   Q 78.71 31.13 79.50 30.21   Z"></path>
  <path fill="#b01e32" d="   M 79.29 32.25   Q 88.86 36.56 98.26 36.69   C 113.75 36.91 128.01 35.65 143.71 41.00   L 143.21 44.25   C 128.10 38.50 114.19 40.19 99.19 39.78   Q 88.44 39.49 78.50 35.46   Q 78.41 33.72 79.29 32.25   Z"></path>
  <path fill="#fbfbfb" d="   M 78.50 35.46   Q 88.44 39.49 99.19 39.78   C 114.19 40.19 128.10 38.50 143.21 44.25   L 142.71 46.75   C 122.44 37.28 99.66 46.27 78.54 37.75   Q 77.93 36.61 78.50 35.46   Z"></path>
  <path fill="#b01e32" d="   M 78.54 37.75   C 99.66 46.27 122.44 37.28 142.71 46.75   Q 143.01 47.97 142.51 49.00   Q 142.27 49.48 141.77 49.28   C 125.77 42.69 111.90 46.83 94.56 44.44   C 89.03 43.68 83.62 43.14 78.50 40.71   Q 77.55 39.19 78.54 37.75   Z"></path>
</svg>
